<?xml version="1.0" standalone="no"?>
<!DOCTYPE svg PUBLIC "-//W3C//DTD SVG 20010904//EN"
 "http://www.w3.org/TR/2001/REC-SVG-20010904/DTD/svg10.dtd">
<svg version="1.0" xmlns="http://www.w3.org/2000/svg"
 width="800.000000pt" height="800.000000pt" viewBox="0 0 800.000000 800.000000"
 preserveAspectRatio="xMidYMid meet">

<g transform="translate(0.000000,800.000000) scale(0.100000,-0.100000)"
fill="#000000" stroke="none">
<path d="M5540 5925 c-317 -60 -582 -250 -762 -547 -40 -64 -48 -111 -27 -151
34 -66 93 -91 147 -63 18 9 54 52 93 111 34 52 66 95 70 95 3 0 2 -21 -3 -47
-12 -63 -2 -178 22 -249 69 -200 259 -334 474 -334 142 0 263 49 360 146 97
97 146 218 146 360 0 166 -73 306 -214 412 -38 29 -16 29 82 2 203 -56 359
-168 495 -352 62 -84 80 -98 124 -98 92 2 144 114 92 200 -131 215 -361 400
-596 479 -143 48 -359 64 -503 36z m92 -457 c55 -16 123 -79 144 -133 45 -120
-3 -253 -111 -305 -125 -61 -285 2 -330 129 -67 190 103 367 297 309z"/>
<path d="M2083 5900 c-165 -30 -376 -125 -508 -230 -136 -108 -306 -318 -321
-396 -14 -76 40 -145 114 -146 54 -1 74 15 134 105 l53 78 6 -108 c9 -160 52
-257 158 -356 301 -278 785 -107 843 298 26 187 -63 392 -211 487 -44 28 -44
28 -15 28 51 0 206 -37 273 -64 149 -61 299 -180 406 -322 45 -59 64 -76 96
-85 33 -10 45 -10 74 4 49 23 77 71 72 123 -6 56 -70 148 -181 260 -144 143
-296 233 -497 295 -96 29 -117 32 -274 35 -93 1 -194 -1 -222 -6z m75 -466
c81 -33 142 -127 142 -219 0 -98 -71 -197 -159 -224 -161 -48 -310 59 -312
223 -2 93 52 178 136 217 50 23 142 25 193 3z"/>
<path d="M3720 5313 c-38 -16 -74 -50 -91 -87 -17 -39 -19 -79 -19 -689 0
-633 0 -649 20 -688 51 -99 164 -113 277 -35 102 70 130 80 228 81 80 0 97 -3
149 -29 72 -35 134 -95 164 -157 132 -272 -110 -572 -398 -494 -102 28 -121
28 -170 3 -58 -30 -90 -77 -90 -136 0 -117 105 -185 310 -198 410 -27 755 342
700 747 -21 155 -81 278 -190 389 -112 115 -261 184 -421 196 -76 6 -200 -6
-244 -22 -15 -6 -16 31 -14 497 2 562 4 541 -66 595 -36 27 -111 41 -145 27z"/>
<path d="M5413 2779 c-18 -5 -74 -49 -129 -100 -191 -177 -412 -295 -686 -369
-607 -162 -1277 -28 -1661 330 -85 79 -125 100 -194 100 -72 0 -119 -17 -158
-56 -63 -63 -47 -114 72 -221 263 -237 618 -392 1053 -459 159 -25 535 -25
707 -1 468 66 892 259 1171 533 76 75 82 84 82 121 0 98 -129 159 -257 122z"/>
</g>
</svg>
